<?xml version="1.0" encoding="UTF-8"?>
<svg
  xmlns="http://www.w3.org/2000/svg"
  viewBox="0 0 7740 7320"
  role="img"
  aria-label="new-branch logo"
>
  <style>
    /* Default (light mode) */
    .logo { fill: #111; }

    /* GitHub dark mode */
    @media (prefers-color-scheme: dark) {
      .logo { fill: #f5f5f5; }
    }
  </style>

  <g transform="translate(0,7320) scale(1,-1)" class="logo">
    <path d="M3505 7089 c-354 -30 -760 -134 -1095 -280 -666 -292 -1262 -826
-1612 -1444 -214 -378 -364 -805 -422 -1205 -53 -365 -48 -818 13 -1151 96
-520 316 -1021 634 -1444 131 -173 382 -440 522 -554 423 -345 803 -550 1282
-690 376 -110 855 -161 1223 -132 871 70 1609 404 2225 1008 448 438 779 1035
924 1663 59 255 81 461 81 768 0 456 -73 846 -238 1267 -366 937 -1095 1648
-2052 2000 -228 83 -488 146 -750 181 -148 19 -573 27 -735 13z m-1090 -1159
c112 -35 199 -86 279 -164 186 -182 249 -449 164 -693 l-22 -62 406 -408 406
-407 69 31 c105 49 185 66 298 67 306 0 568 -190 662 -481 44 -136 33 -357
-24 -467 l-15 -29 391 -391 391 -391 0 1087 c0 803 3 1094 12 1112 13 30 381
366 442 405 31 20 71 7 84 -26 8 -20 11 -531 9 -1771 l-2 -1744 -24 -19 c-20
-16 -40 -19 -129 -19 l-107 0 -710 710 -710 709 -60 -21 c-83 -28 -245 -35
-345 -14 -42 9 -116 36 -169 62 -157 77 -287 225 -341 385 -47 139 -48 308 -2
444 l19 57 -409 408 c-334 332 -413 407 -427 399 -9 -5 -43 -20 -76 -33 -33
-13 -60 -29 -59 -35 1 -6 2 -451 3 -990 l1 -978 97 -47 c80 -39 110 -60 178
-129 88 -88 132 -161 175 -292 34 -103 32 -260 -3 -370 -36 -108 -89 -197
-164 -271 -149 -150 -352 -220 -563 -195 -111 14 -185 40 -275 96 -335 208
-414 652 -172 970 60 79 133 137 240 191 l87 44 0 998 0 998 -72 32 c-142 63
-257 172 -326 308 -53 105 -66 166 -66 299 0 103 4 132 28 202 33 102 106 214
189 288 75 69 215 140 312 160 94 19 239 13 330 -15z"/>
    <path d="M2142 5605 c-29 -8 -66 -22 -82 -30 -42 -22 -98 -83 -128 -140 -23
-43 -27 -62 -27 -140 0 -79 4 -97 28 -147 51 -105 159 -170 282 -172 135 -1
236 59 294 176 27 53 31 72 31 140 0 64 -5 90 -25 131 -37 79 -79 123 -148
156 -76 37 -153 46 -225 26z"/>
    <path d="M3925 3937 c-69 -23 -100 -44 -153 -101 -115 -126 -115 -315 0 -441
123 -135 334 -148 467 -29 142 127 154 332 30 469 -67 73 -138 107 -232 111
-42 2 -89 -2 -112 -9z"/>
    <path d="M2124 2322 c-232 -83 -299 -358 -130 -528 172 -172 462 -101 537 131
47 147 -30 314 -179 386 -61 30 -162 35 -228 11z"/>
  </g>
</svg>